<svg width="132" height="96" viewBox="0 0 132 96" fill="none" xmlns="http://www.w3.org/2000/svg">
<g clip-path="url(#clip0_532_6009)">
<path d="M35.0617 70.8989C15.7286 70.8989 0 55.3285 0 36.1897C0 17.0509 15.7286 1.48047 35.0617 1.48047C40.6792 1.48618 46.2134 2.82505 51.2003 5.38484C56.1873 7.94462 60.4816 11.6507 63.7233 16.1923L63.3916 16.4243C60.1875 11.9352 55.9428 8.27196 51.0136 5.74175C46.0844 3.21155 40.6142 1.88813 35.0617 1.88247C15.9526 1.88247 0.406083 17.2727 0.406083 36.1897C0.406083 55.1066 15.9526 70.4969 35.0617 70.4969C40.3849 70.5141 45.6396 69.3092 50.4131 66.977C55.1866 64.6448 59.3489 61.2488 62.573 57.0556L62.8951 57.3002C59.6332 61.5425 55.4223 64.9783 50.5929 67.3379C45.7635 69.6974 40.4472 70.9163 35.0617 70.8989Z" fill="#0D1529"/>
<path d="M49.5568 30.3772C49.1724 30.3772 48.7966 30.2644 48.477 30.053C48.1574 29.8416 47.9083 29.5411 47.7612 29.1895C47.6141 28.838 47.5756 28.4511 47.6506 28.0779C47.7256 27.7047 47.9107 27.3619 48.1825 27.0928C48.4543 26.8237 48.8006 26.6405 49.1776 26.5663C49.5546 26.492 49.9454 26.5301 50.3005 26.6758C50.6557 26.8214 50.9592 27.068 51.1728 27.3844C51.3863 27.7008 51.5003 28.0727 51.5003 28.4533C51.5003 28.9635 51.2955 29.4529 50.9311 29.8137C50.5666 30.1745 50.0722 30.3772 49.5568 30.3772Z" fill="#0D1529"/>
<path d="M50.2341 28.8562L49.8274 28.4536L50.2341 28.051C50.252 28.0334 50.2662 28.0125 50.2759 27.9894C50.2856 27.9664 50.2906 27.9416 50.2907 27.9167C50.2907 27.8917 50.2858 27.867 50.2761 27.8439C50.2665 27.8208 50.2523 27.7998 50.2345 27.7822C50.2167 27.7645 50.1955 27.7505 50.1722 27.741C50.1488 27.7314 50.1239 27.7265 50.0986 27.7266C50.0734 27.7266 50.0484 27.7316 50.0251 27.7412C50.0018 27.7508 49.9807 27.7649 49.9629 27.7826L49.5562 28.1852L49.1495 27.7826C49.1136 27.747 49.0648 27.727 49.014 27.727C48.9631 27.727 48.9144 27.747 48.8784 27.7826C48.8425 27.8182 48.8223 27.8665 48.8223 27.9168C48.8223 27.9671 48.8425 28.0154 48.8784 28.051L49.2851 28.4536L48.8784 28.8562C48.8427 28.8918 48.8226 28.94 48.8227 28.9903C48.8228 29.0405 48.843 29.0886 48.8789 29.1242C48.9147 29.1597 48.9634 29.1797 49.0141 29.1798C49.0649 29.1798 49.1136 29.16 49.1496 29.1246L49.5562 28.722L49.9629 29.1246C49.9807 29.1422 50.0019 29.1562 50.0251 29.1657C50.0484 29.1753 50.0733 29.1802 50.0985 29.1802C50.1237 29.1802 50.1486 29.1753 50.1719 29.1657C50.1951 29.1562 50.2163 29.1422 50.2341 29.1246C50.2519 29.107 50.266 29.0861 50.2756 29.063C50.2853 29.04 50.2902 29.0153 50.2902 28.9904C50.2902 28.9655 50.2853 28.9408 50.2756 28.9178C50.266 28.8947 50.2519 28.8738 50.2341 28.8562Z" fill="white"/>
<path d="M39.8911 7.6576C42.0272 7.6576 43.7588 5.94339 43.7588 3.8288C43.7588 1.71421 42.0272 0 39.8911 0C37.7551 0 36.0234 1.71421 36.0234 3.8288C36.0234 5.94339 37.7551 7.6576 39.8911 7.6576Z" fill="#0D1529"/>
<path d="M39.3643 5.82104C39.2975 5.82105 39.2316 5.80565 39.1719 5.77607C39.1121 5.7465 39.0602 5.70355 39.0201 5.65065L37.9649 4.25789C37.931 4.21314 37.9064 4.16223 37.8924 4.10805C37.8783 4.05387 37.8752 3.99748 37.8832 3.94212C37.8912 3.88675 37.9102 3.83349 37.9389 3.78536C37.9677 3.73724 38.0058 3.6952 38.051 3.66164C38.0962 3.62808 38.1476 3.60367 38.2024 3.58979C38.2571 3.57591 38.314 3.57284 38.37 3.58075C38.4259 3.58866 38.4797 3.6074 38.5283 3.6359C38.5769 3.6644 38.6194 3.70209 38.6533 3.74684L39.3436 4.65795L41.1166 2.02521C41.1803 1.93204 41.2786 1.86758 41.3901 1.84589C41.5015 1.8242 41.6172 1.84704 41.7117 1.90942C41.8062 1.97181 41.872 2.06868 41.8946 2.1789C41.9173 2.28911 41.895 2.40372 41.8326 2.49771L39.7223 5.63138C39.6841 5.68805 39.6327 5.73484 39.5725 5.76782C39.5123 5.80079 39.445 5.819 39.3762 5.82091L39.3643 5.82104Z" fill="white"/>
<path d="M44.627 10.7363H35.3262C34.7577 10.7363 34.2969 11.1925 34.2969 11.7553V12.122C34.2969 12.6848 34.7577 13.141 35.3262 13.141H44.627C45.1955 13.141 45.6563 12.6848 45.6563 12.122V11.7553C45.6563 11.1925 45.1955 10.7363 44.627 10.7363Z" fill="#0D1529"/>
<path d="M50.3956 15.5449H29.5567C28.9882 15.5449 28.5273 16.0011 28.5273 16.5639V16.9306C28.5273 17.4934 28.9882 17.9496 29.5567 17.9496H50.3956C50.9641 17.9496 51.4249 17.4934 51.4249 16.9306V16.5639C51.4249 16.0011 50.9641 15.5449 50.3956 15.5449Z" fill="#0D1529"/>
<path d="M50.3956 20.3555H29.5567C28.9882 20.3555 28.5273 20.8117 28.5273 21.3744V21.7412C28.5273 22.3039 28.9882 22.7601 29.5567 22.7601H50.3956C50.9641 22.7601 51.4249 22.3039 51.4249 21.7412V21.3744C51.4249 20.8117 50.9641 20.3555 50.3956 20.3555Z" fill="#0D1529"/>
<path d="M37.7209 71.6331C37.3365 71.6331 36.9607 71.5203 36.6411 71.3089C36.3215 71.0974 36.0724 70.797 35.9253 70.4454C35.7782 70.0938 35.7397 69.707 35.8147 69.3338C35.8897 68.9606 36.0748 68.6178 36.3466 68.3487C36.6184 68.0796 36.9647 67.8964 37.3417 67.8221C37.7187 67.7479 38.1095 67.786 38.4646 67.9316C38.8197 68.0772 39.1233 68.3238 39.3368 68.6402C39.5504 68.9566 39.6644 69.3286 39.6644 69.7091C39.6644 70.2194 39.4596 70.7088 39.0951 71.0696C38.7306 71.4304 38.2363 71.6331 37.7209 71.6331Z" fill="#0D1529"/>
<path d="M38.3981 70.1116L37.9914 69.709L38.3981 69.3064C38.4341 69.2708 38.4543 69.2225 38.4543 69.1722C38.4543 69.1219 38.4341 69.0736 38.3981 69.038C38.3622 69.0024 38.3134 68.9824 38.2626 68.9824C38.2117 68.9824 38.1629 69.0024 38.127 69.038L37.7203 69.4406L37.3136 69.038C37.2777 69.0024 37.2289 68.9824 37.178 68.9824C37.1272 68.9824 37.0784 69.0024 37.0425 69.038C37.0065 69.0736 36.9863 69.1219 36.9863 69.1722C36.9863 69.2225 37.0065 69.2708 37.0425 69.3064L37.4492 69.709L37.0425 70.1116C37.0065 70.1472 36.9863 70.1955 36.9863 70.2458C36.9863 70.2961 37.0065 70.3444 37.0425 70.38C37.0784 70.4156 37.1272 70.4356 37.178 70.4356C37.2289 70.4356 37.2777 70.4156 37.3136 70.38L37.7203 69.9774L38.127 70.38C38.1629 70.4156 38.2117 70.4356 38.2626 70.4356C38.3134 70.4356 38.3622 70.4156 38.3981 70.38C38.4341 70.3444 38.4543 70.2961 38.4543 70.2458C38.4543 70.1955 38.4341 70.1472 38.3981 70.1116Z" fill="white"/>
<path d="M28.0552 48.9115C30.1912 48.9115 31.9229 47.1973 31.9229 45.0827C31.9229 42.9681 30.1912 41.2539 28.0552 41.2539C25.9191 41.2539 24.1875 42.9681 24.1875 45.0827C24.1875 47.1973 25.9191 48.9115 28.0552 48.9115Z" fill="#0D1529"/>
<path d="M27.5283 47.0757C27.4615 47.0757 27.3957 47.0603 27.3359 47.0308C27.2762 47.0012 27.2242 46.9582 27.1842 46.9053L26.129 45.5126C26.0951 45.4678 26.0704 45.4169 26.0564 45.3627C26.0424 45.3086 26.0393 45.2522 26.0473 45.1968C26.0553 45.1415 26.0742 45.0882 26.103 45.0401C26.1318 44.9919 26.1699 44.9499 26.2151 44.9163C26.2603 44.8828 26.3117 44.8584 26.3664 44.8445C26.4212 44.8306 26.4781 44.8275 26.534 44.8355C26.59 44.8434 26.6438 44.8621 26.6924 44.8906C26.741 44.9191 26.7835 44.9568 26.8174 45.0015L27.5077 45.9126L29.2807 43.2799C29.3119 43.233 29.3521 43.1926 29.3991 43.1611C29.4461 43.1296 29.4989 43.1076 29.5545 43.0964C29.6101 43.0852 29.6674 43.085 29.7231 43.0959C29.7787 43.1067 29.8317 43.1283 29.8789 43.1594C29.9261 43.1906 29.9666 43.2307 29.9981 43.2774C30.0296 43.3241 30.0515 43.3765 30.0624 43.4317C30.0734 43.4868 30.0732 43.5435 30.0619 43.5985C30.0506 43.6536 30.0284 43.7059 29.9967 43.7524L27.8863 46.8861C27.8481 46.9428 27.7968 46.9895 27.7366 47.0225C27.6764 47.0555 27.6091 47.0737 27.5403 47.0756L27.5283 47.0757Z" fill="white"/>
<path d="M32.7911 51.9902H23.4903C22.9218 51.9902 22.4609 52.4464 22.4609 53.0092V53.3759C22.4609 53.9387 22.9218 54.3949 23.4903 54.3949H32.7911C33.3595 54.3949 33.8204 53.9387 33.8204 53.3759V53.0092C33.8204 52.4464 33.3595 51.9902 32.7911 51.9902Z" fill="#0D1529"/>
<path d="M38.5597 56.8008H17.7207C17.1522 56.8008 16.6914 57.257 16.6914 57.8198V58.1865C16.6914 58.7492 17.1522 59.2054 17.7207 59.2054H38.5597C39.1281 59.2054 39.589 58.7492 39.589 58.1865V57.8198C39.589 57.257 39.1281 56.8008 38.5597 56.8008Z" fill="#0D1529"/>
<path d="M38.5597 61.6094H17.7207C17.1522 61.6094 16.6914 62.0656 16.6914 62.6283V62.9951C16.6914 63.5578 17.1522 64.014 17.7207 64.014H38.5597C39.1281 64.014 39.589 63.5578 39.589 62.9951V62.6283C39.589 62.0656 39.1281 61.6094 38.5597 61.6094Z" fill="#0D1529"/>
<path d="M77.926 63.423C77.3952 63.423 76.8763 63.2672 76.435 62.9753C75.9936 62.6833 75.6496 62.2684 75.4465 61.7829C75.2434 61.2975 75.1902 60.7633 75.2938 60.2479C75.3973 59.7325 75.6529 59.2591 76.0283 58.8875C76.4036 58.516 76.8818 58.2629 77.4024 58.1604C77.923 58.0579 78.4626 58.1105 78.9531 58.3116C79.4435 58.5127 79.8626 58.8532 80.1575 59.2902C80.4524 59.7271 80.6098 60.2407 80.6098 60.7662C80.6098 61.4708 80.3271 62.1466 79.8237 62.6449C79.3204 63.1431 78.6378 63.423 77.926 63.423Z" fill="#0D1529"/>
<path d="M78.8617 61.323L78.3001 60.767L78.8617 60.2111C78.9113 60.1619 78.9392 60.0953 78.9392 60.0258C78.9392 59.9562 78.9113 59.8896 78.8617 59.8404C78.812 59.7913 78.7447 59.7637 78.6745 59.7637C78.6043 59.7637 78.5369 59.7913 78.4873 59.8404L77.9257 60.3964L77.3641 59.8404C77.3144 59.7913 77.2471 59.7637 77.1769 59.7637C77.1067 59.7637 77.0393 59.7913 76.9897 59.8404C76.94 59.8896 76.9121 59.9562 76.9121 60.0258C76.9121 60.0953 76.94 60.1619 76.9897 60.2111L77.5513 60.767L76.9897 61.323C76.94 61.3721 76.9121 61.4388 76.9121 61.5083C76.9121 61.5778 76.94 61.6445 76.9897 61.6936C77.0393 61.7428 77.1067 61.7704 77.1769 61.7704C77.2471 61.7704 77.3144 61.7428 77.3641 61.6936L77.9257 61.1377L78.4873 61.6936C78.5369 61.7428 78.6043 61.7704 78.6745 61.7704C78.7447 61.7704 78.812 61.7428 78.8617 61.6936C78.9113 61.6445 78.9392 61.5778 78.9392 61.5083C78.9392 61.4388 78.9113 61.3721 78.8617 61.323Z" fill="white"/>
<path d="M66.2315 32.049C69.1812 32.049 71.5724 29.6819 71.5724 26.7618C71.5724 23.8418 69.1812 21.4746 66.2315 21.4746C63.2818 21.4746 60.8906 23.8418 60.8906 26.7618C60.8906 29.6819 63.2818 32.049 66.2315 32.049Z" fill="#E62127"/>
<path d="M65.5042 29.5135C65.412 29.5135 65.3211 29.4922 65.2386 29.4514C65.1561 29.4106 65.0843 29.3513 65.029 29.2782L63.5719 27.3549C63.5251 27.2931 63.4911 27.2228 63.4717 27.148C63.4523 27.0732 63.4481 26.9953 63.4591 26.9189C63.4701 26.8424 63.4963 26.7689 63.536 26.7024C63.5758 26.636 63.6284 26.5779 63.6908 26.5316C63.7532 26.4852 63.8242 26.4515 63.8998 26.4323C63.9754 26.4132 64.054 26.4089 64.1313 26.4199C64.2085 26.4308 64.2828 26.4567 64.3499 26.496C64.417 26.5354 64.4757 26.5874 64.5225 26.6492L65.4758 27.9074L67.9241 24.2718C67.9674 24.2075 68.023 24.1523 68.0879 24.1093C68.1527 24.0663 68.2254 24.0364 68.302 24.0212C68.3785 24.006 68.4573 24.006 68.5338 24.0209C68.6104 24.0359 68.6832 24.0657 68.7481 24.1085C68.813 24.1514 68.8688 24.2065 68.9122 24.2707C68.9556 24.3349 68.9859 24.4069 69.0011 24.4826C69.0164 24.5584 69.0165 24.6364 69.0013 24.7122C68.9862 24.7879 68.9561 24.86 68.9128 24.9243L65.9986 29.2516C65.9459 29.3298 65.875 29.3944 65.7919 29.44C65.7087 29.4855 65.6158 29.5107 65.5208 29.5133C65.5153 29.5134 65.5098 29.5135 65.5042 29.5135Z" fill="white"/>
<path d="M73.1628 36.3008H59.5352C58.9667 36.3008 58.5059 36.757 58.5059 37.3198V38.6024C58.5059 39.1652 58.9667 39.6214 59.5352 39.6214H73.1628C73.7313 39.6214 74.1922 39.1652 74.1922 38.6024V37.3198C74.1922 36.757 73.7313 36.3008 73.1628 36.3008Z" fill="#3F3D56"/>
<path d="M81.1311 42.9414H51.5703C51.0019 42.9414 50.541 43.3976 50.541 43.9604V45.243C50.541 45.8058 51.0019 46.262 51.5703 46.262H81.1311C81.6995 46.262 82.1604 45.8058 82.1604 45.243V43.9604C82.1604 43.3976 81.6995 42.9414 81.1311 42.9414Z" fill="#3F3D56"/>
<path d="M81.1311 49.584H51.5703C51.0019 49.584 50.541 50.0402 50.541 50.603V51.8856C50.541 52.4484 51.0019 52.9046 51.5703 52.9046H81.1311C81.6995 52.9046 82.1604 52.4484 82.1604 51.8856V50.603C82.1604 50.0402 81.6995 49.584 81.1311 49.584Z" fill="#3F3D56"/>
<path d="M91.5058 93.1908L88.9159 93.1906L87.6836 83.3008L91.5065 83.301L91.5058 93.1908Z" fill="#FFB6B6"/>
<path d="M91.4366 92.3527L88.6712 91.2392L88.592 91.207L87.0651 92.3527C86.2031 92.3529 85.3763 92.6919 84.7667 93.2954C84.1571 93.8989 83.8146 94.7173 83.8145 95.5707V95.6753H92.1655V92.3527H91.4366Z" fill="#2F2E41"/>
<path d="M113.398 91.044L110.925 91.8048L106.783 82.7224L110.434 81.5996L113.398 91.044Z" fill="#FFB6B6"/>
<path d="M113.081 90.2642L110.107 90.0133L110.022 90.0059L108.907 91.5485C108.084 91.8019 107.396 92.3686 106.995 93.124C106.593 93.8794 106.512 94.7615 106.767 95.5766L106.799 95.6764L114.774 93.2229L113.778 90.0501L113.081 90.2642Z" fill="#2F2E41"/>
<path d="M103.035 42.5293L104.088 45.4952V47.0984L103.941 48.8614L105.572 54.7414L106.851 67.7076L113.287 86.9014L108.352 88.3084L95.7514 56.9476L91.7715 88.6681L87.2581 88.5489C87.2581 88.5489 86.486 86.7004 86.6891 85.6954C86.8921 84.6904 86.8921 85.8964 86.8921 84.6904C86.8921 83.4844 86.0119 84.0082 86.655 83.0428C87.2982 82.0774 87.2181 81.2322 87.2581 80.6498C87.2982 80.0674 86.8921 56.5504 86.8921 55.7464C86.8921 54.9424 86.7514 55.1185 86.8218 54.3269C86.8921 53.5354 87.7845 53.8608 87.5413 52.4921C87.2982 51.1234 87.2181 51.3626 87.2581 50.3385C87.2982 49.3144 87.8577 43.3095 87.8577 43.3095L103.035 42.5293Z" fill="#2F2E41"/>
<path d="M86.1423 43.494L95.1903 34.8561L97.6981 27.8267L93.999 26.2344C92.099 28.0361 90.0452 33.6481 90.0452 33.6481L83.8189 41.4897C83.7704 41.5062 83.722 41.5236 83.6742 41.5445C83.3938 41.6669 83.15 41.8589 82.9664 42.1018C82.7828 42.3448 82.6656 42.6305 82.6262 42.9314C82.5867 43.2323 82.6263 43.5382 82.7412 43.8195C82.856 44.1008 83.0423 44.348 83.2818 44.5372C83.5214 44.7264 83.8062 44.8513 84.1088 44.8997C84.4114 44.9481 84.7214 44.9184 85.009 44.8136C85.2966 44.7087 85.552 44.5321 85.7506 44.301C85.9491 44.0698 86.084 43.7919 86.1423 43.494Z" fill="#FFB8B8"/>
<path d="M92.959 27.0181L97.651 28.4927L97.6687 28.4898C99.4151 28.2002 100.864 25.3766 101.772 23.0589C102.071 22.2945 102.065 21.4462 101.757 20.6856C101.448 19.9251 100.859 19.3089 100.109 18.9618C99.5536 18.7095 98.9383 18.6158 98.3323 18.6915C97.7263 18.7672 97.1537 19.0092 96.6793 19.3901L94.2699 21.3391L92.959 27.0181Z" fill="#E62127"/>
<path d="M103.833 46.3391L103.86 46.303C105.324 44.381 103.322 39.6213 103.019 38.931L104.38 38.5319L104.143 35.9662L104.029 34.8222L105.087 33.8272L105.091 33.8018L105.819 28.6741L106.771 25.2803C107.13 23.9973 107.137 22.6429 106.793 21.356C106.448 20.0691 105.764 18.8962 104.81 17.9577L102.863 16.0442L100.531 12.43L96.6203 12.3301L95.214 14.8031C93.9063 15.0673 92.7336 15.7773 91.9002 16.8095C91.0669 17.8416 90.6257 19.1304 90.6536 20.4515L90.786 27.0351L89.3828 35.1923L89.3434 36.674L87.9661 38.1128L88.2208 39.5673L87.1905 39.9736L86.6864 42.0405C86.4938 42.2789 85.2225 43.8698 85.211 44.3132C85.2092 44.3798 85.2572 44.4454 85.3619 44.5196C86.1848 45.1024 90.7842 46.3653 92.8542 45.6061C95.0591 44.798 103.701 46.3156 103.788 46.3311L103.833 46.3391Z" fill="#E62127"/>
<path d="M94.2446 25.468L92.247 21.5254C89.3474 21.7215 83.5925 25.0403 83.5925 25.0403L72.7042 27.3257C72.3816 27.2029 72.0321 27.1665 71.6908 27.22C71.3495 27.2735 71.0284 27.415 70.7599 27.6304C70.4914 27.8458 70.285 28.1274 70.1614 28.4468C70.0378 28.7663 70.0014 29.1123 70.0558 29.4502C70.1103 29.788 70.2536 30.1056 70.4715 30.3712C70.6894 30.6367 70.9741 30.8407 71.297 30.9627C71.6198 31.0847 71.9694 31.1203 72.3106 31.066C72.6518 31.0117 72.9725 30.8694 73.2405 30.6534L87.0911 29.6705L94.2446 25.468Z" fill="#FFB8B8"/>
<path d="M93.4393 26.1146L98.6565 22.2765L99.5755 18.998C99.7535 18.3538 99.746 17.673 99.5537 17.0328C99.3615 16.3925 98.9921 15.8183 98.4875 15.3749C97.7994 14.7784 96.9081 14.4629 95.9939 14.4921C95.0797 14.5213 94.2108 14.893 93.563 15.5322C91.5997 17.4721 89.3604 20.1785 89.8414 22.0552L89.8463 22.0742L93.4393 26.1146Z" fill="#E62127"/>
<path d="M98.7037 11.4332C101.266 11.4332 103.343 9.37707 103.343 6.84064C103.343 4.30422 101.266 2.24805 98.7037 2.24805C96.1415 2.24805 94.0645 4.30422 94.0645 6.84064C94.0645 9.37707 96.1415 11.4332 98.7037 11.4332Z" fill="#FFB8B8"/>
<path d="M101.756 11.6441C100.98 11.2832 100.073 11.5025 99.2167 11.5359C98.3601 11.5693 97.3221 11.2496 97.1404 10.4202C97.006 9.8069 97.4099 9.13474 97.1554 8.56003C96.8778 7.93329 96.0446 7.8441 95.3764 7.66861C94.5389 7.42904 93.8003 6.93148 93.2678 6.24813C92.7353 5.56479 92.4367 4.73124 92.4152 3.86846C92.3688 4.2109 92.9607 4.32337 93.1551 4.03643C93.3495 3.7495 93.2156 3.35235 93.0012 3.0797C92.7869 2.80704 92.4975 2.5893 92.3359 2.28309C92.1742 1.97689 92.2057 1.52213 92.5213 1.37477C92.6831 1.69805 92.9122 1.98371 93.1937 2.21289C93.4751 2.44208 93.8025 2.60959 94.1541 2.70437C94.0105 2.27258 94.2135 1.78714 94.5403 1.46777C94.8875 1.16854 95.2875 0.935356 95.7202 0.779945C96.7896 0.321036 98.0382 -0.13563 99.0738 0.393844C99.3411 0.53314 99.5732 0.730432 99.7528 0.970983C99.9323 1.21153 100.055 1.48913 100.11 1.78303C102.026 1.94339 103.993 3.99764 103.884 5.89773C103.767 7.94324 103.681 8.10874 101.961 11.5509" fill="#2F2E41"/>
<path d="M124.997 95.7932H118.259L118.23 95.7412C118.144 95.5865 118.06 95.4226 117.983 95.2542C117.289 93.7832 116.995 92.1008 116.736 90.6165L116.541 89.4977C116.518 89.3622 116.536 89.2228 116.592 89.0973C116.649 88.9719 116.743 88.8661 116.861 88.7935C116.979 88.721 117.116 88.6849 117.255 88.6899C117.393 88.695 117.528 88.7409 117.64 88.8218C118.664 89.5595 119.688 90.2964 120.713 91.0326C121.101 91.3122 121.544 91.6356 121.969 91.9852C122.01 91.7884 122.053 91.5909 122.095 91.3962C122.125 91.2617 122.194 91.1391 122.295 91.0439C122.395 90.9487 122.522 90.8853 122.659 90.8619C122.796 90.8385 122.937 90.856 123.063 90.9123C123.19 90.9686 123.297 91.0611 123.371 91.1779L124.159 92.4318C124.734 93.3475 125.242 94.2498 125.138 95.223C125.139 95.2349 125.138 95.2467 125.135 95.2584C125.115 95.4182 125.076 95.5753 125.021 95.7269L124.997 95.7932Z" fill="#F0F0F0"/>
<path d="M131.759 95.9376L67.7288 95.9994C67.6649 95.9991 67.6037 95.9737 67.5587 95.9289C67.5136 95.884 67.4883 95.8233 67.4883 95.7601C67.4883 95.6968 67.5136 95.6361 67.5587 95.5913C67.6037 95.5464 67.6649 95.5211 67.7288 95.5208L131.759 95.459C131.823 95.4593 131.885 95.4847 131.93 95.5295C131.975 95.5744 132 95.635 132 95.6983C132 95.7616 131.975 95.8223 131.93 95.8671C131.885 95.912 131.823 95.9373 131.759 95.9376Z" fill="#CACACA"/>
</g>
<defs>
<clipPath id="clip0_532_6009">
<rect width="132" height="96" fill="white"/>
</clipPath>
</defs>
</svg>
