<svg width="108" height="148" viewBox="0 0 108 148" fill="none" xmlns="http://www.w3.org/2000/svg">
<g clip-path="url(#clip0_532_6053)">
<path d="M95.5973 147.761H48.5766C41.7373 147.761 36.1738 142.191 36.1738 135.344V12.4168C36.1738 5.56977 41.7373 0 48.5766 0H95.5973C102.437 0 108 5.56977 108 12.4168V135.344C108 142.191 102.437 147.761 95.5973 147.761Z" fill="#DADBDC"/>
<path d="M95.6318 144.399H48.5429C43.481 144.399 39.3613 140.275 39.3613 135.207V12.3111C39.3613 7.24345 43.481 3.11914 48.5429 3.11914H95.6318C100.694 3.11914 104.813 7.24345 104.813 12.3111V135.207C104.813 140.275 100.694 144.399 95.6318 144.399Z" fill="white"/>
<path d="M78.7452 11.3014H65.4293C63.6714 11.3014 62.2422 9.87056 62.2422 8.11066C62.2422 6.35076 63.6714 4.91992 65.4293 4.91992H78.7452C80.5031 4.91992 81.9323 6.35076 81.9323 8.11066C81.9323 9.87056 80.5031 11.3014 78.7452 11.3014Z" fill="#DADBDC"/>
<path d="M92.3347 48.8283H53.3707C52.5989 48.8283 51.9707 48.0288 51.9707 47.0489C51.9707 46.069 52.5989 45.2695 53.3707 45.2695H92.3347C93.1065 45.2695 93.7347 46.069 93.7347 47.0489C93.7347 48.0288 93.1065 48.8283 92.3347 48.8283Z" fill="#DADBDC"/>
<path d="M92.3347 56.7151H53.3707C52.5989 56.7151 51.9707 55.9155 51.9707 54.9356C51.9707 53.9558 52.5989 53.1562 53.3707 53.1562H92.3347C93.1065 53.1562 93.7347 53.9558 93.7347 54.9356C93.7347 55.9155 93.1065 56.7151 92.3347 56.7151Z" fill="#DADBDC"/>
<path d="M81.1614 64.5998H53.3707C52.5989 64.5998 51.9707 63.8003 51.9707 62.8204C51.9707 61.8405 52.5989 61.041 53.3707 61.041H81.1614C81.9332 61.041 82.5614 61.8405 82.5614 62.8204C82.5614 63.8003 81.9332 64.5998 81.1614 64.5998Z" fill="#DADBDC"/>
<path d="M72.0871 110.962C81.2728 110.962 88.7192 103.507 88.7192 94.311C88.7192 85.115 81.2728 77.6602 72.0871 77.6602C62.9015 77.6602 55.4551 85.115 55.4551 94.311C55.4551 103.507 62.9015 110.962 72.0871 110.962Z" fill="#E62127"/>
<path d="M67.6626 94.6571C68.5221 96.3414 69.3816 98.0282 70.2411 99.7125C70.487 100.198 71.2101 100.044 71.3538 99.5663C72.4811 95.8027 74.575 92.3731 77.3969 89.6455C77.9618 89.0995 77.0999 88.2391 76.535 88.7826C73.5646 91.654 71.366 95.2835 70.1778 99.2421L71.2905 99.0958C70.431 97.4115 69.5715 95.7247 68.712 94.0404C68.3566 93.3408 67.3047 93.9575 67.6602 94.6547H67.6626V94.6571Z" fill="white"/>
<path d="M27.2496 74.1701L23.2176 75.5473L23.1543 69.7192L26.8235 69.6777L27.2496 74.1701Z" fill="#F3A3A6"/>
<path d="M23.6277 71.327C25.8545 71.327 27.6597 69.5198 27.6597 67.2905C27.6597 65.0611 25.8545 63.2539 23.6277 63.2539C21.4009 63.2539 19.5957 65.0611 19.5957 67.2905C19.5957 69.5198 21.4009 71.327 23.6277 71.327Z" fill="#F3A3A6"/>
<path d="M24.7296 66.8782C24.0552 66.8661 23.6047 66.1884 23.3345 65.5668C23.0642 64.9477 22.7866 64.2335 22.1609 63.9824C21.6471 63.7777 20.7609 65.2085 20.3518 64.8356C19.9257 64.4456 20.3153 62.4127 20.7584 62.0446C21.2016 61.6765 21.8127 61.5985 22.3873 61.5644C23.7922 61.484 25.2044 61.5815 26.5849 61.8545C27.4371 62.0227 28.3185 62.281 28.9393 62.8904C29.7258 63.6631 29.9376 64.8405 30.0058 65.9422C30.0764 67.0684 30.0228 68.2506 29.4872 69.2451C28.9491 70.2372 27.812 70.9782 26.7091 70.7393C26.5922 70.1421 26.6969 69.5278 26.7334 68.9185C26.7699 68.3115 26.7164 67.6558 26.3414 67.1756C25.9665 66.6954 25.1727 66.5126 24.7466 66.9465" fill="#2F2E43"/>
<path d="M29.7052 68.2219C30.1045 67.9221 30.5841 67.6686 31.0808 67.7246C31.6189 67.7831 32.0767 68.2219 32.2203 68.7435C32.364 69.2651 32.2154 69.8428 31.8892 70.2743C31.5629 70.7057 31.0735 70.9934 30.5525 71.1396C30.2506 71.2249 29.9219 71.2615 29.6321 71.1396C29.206 70.9617 28.9723 70.423 29.133 69.9891" fill="#2F2E43"/>
<path d="M14.7021 106.357C14.4489 107.685 14.9529 108.892 15.8319 109.05C16.7084 109.209 17.6263 108.258 17.8795 106.93C17.9891 106.401 17.9648 105.852 17.8089 105.333L20.9109 84.514L16.7328 83.7754L15.3571 104.892C15.0211 105.323 14.7947 105.825 14.7021 106.359V106.357Z" fill="#F3A3A6"/>
<path d="M23.1451 72.873L20.2989 72.9047C18.2902 73.2314 17.7545 74.3136 17.3211 76.3027C16.6564 79.3374 15.8091 83.3813 15.9869 83.4373C16.2717 83.53 21.1413 85.7579 23.6053 85.207L23.1451 72.873Z" fill="#E62127"/>
<path d="M26.6399 139.04L22.8516 139.082L22.9116 144.461L26.6999 144.419L26.6399 139.04Z" fill="#F3A3A6"/>
<path d="M19.2503 147.76C18.851 147.765 18.498 147.76 18.2302 147.738C17.2222 147.658 16.2555 146.924 15.7662 146.495C15.547 146.303 15.474 145.991 15.5835 145.722C15.6615 145.53 15.8222 145.384 16.0218 145.323L18.6733 144.533L22.9463 141.576L22.995 141.661C23.0145 141.693 23.4455 142.451 23.5916 142.966C23.6476 143.161 23.6354 143.324 23.555 143.451C23.499 143.538 23.4211 143.59 23.3578 143.621C23.4357 143.702 23.6817 143.865 24.4364 143.977C25.5345 144.14 25.7561 142.997 25.7634 142.949L25.7707 142.909L25.8024 142.888C26.321 142.544 26.6399 142.388 26.7519 142.42C26.8225 142.439 26.937 142.473 27.2827 145.574C27.3144 145.671 27.5408 146.383 27.3996 147.068C27.2462 147.814 24.0006 147.592 23.353 147.541C23.3335 147.543 20.9084 147.743 19.2455 147.76H19.2503Z" fill="#2F2E43"/>
<path d="M37.3795 134.684L34.1875 136.727L37.0818 141.259L40.2739 139.216L37.3795 134.684Z" fill="#F3A3A6"/>
<path d="M33.2372 146.866C32.7917 146.871 32.3826 146.823 32.0904 146.774C31.8031 146.725 31.5767 146.501 31.528 146.213C31.4915 146.006 31.5523 145.799 31.6887 145.643L33.5197 143.568L35.5819 138.796L35.6696 138.842C35.7012 138.859 36.4682 139.273 36.8651 139.632C37.016 139.768 37.0915 139.912 37.0915 140.063C37.0915 140.168 37.0525 140.253 37.0136 140.312C37.1231 140.339 37.4178 140.346 38.1165 140.041C39.1343 139.598 38.7179 138.51 38.6985 138.467L38.6838 138.43L38.7009 138.396C38.959 137.83 39.1489 137.528 39.2585 137.494C39.3291 137.475 39.4435 137.44 41.3767 139.888C41.4546 139.954 42.0244 140.436 42.2654 141.092C42.5284 141.806 39.6602 143.337 39.0807 143.637C39.0637 143.651 36.0664 145.882 34.8344 146.52C34.3451 146.774 33.7631 146.857 33.2324 146.862L33.2372 146.866Z" fill="#2F2E43"/>
<path d="M28.923 94.0107L18.317 94.1277L17.4648 104.014L22.0812 140.465L27.4962 140.404L25.0979 119.349L34.092 138.284L38.8667 134.857L31.8106 117.165C31.8106 117.165 34.0896 101.66 32.1223 97.8255C30.155 93.9912 28.9254 94.0059 28.9254 94.0059V94.0107H28.923Z" fill="#2F2E43"/>
<path d="M34.2033 94.5553L17.3594 94.743L22.1705 72.8856L29.5114 72.8027L34.2033 94.5553Z" fill="#E62127"/>
<path d="M35.8495 106.122C36.1319 107.446 35.6547 108.662 34.7806 108.84C33.9065 109.018 32.9691 108.09 32.6867 106.766C32.565 106.239 32.5771 105.691 32.7208 105.167L29.1562 84.421L33.3173 83.5898L35.1604 104.672C35.5062 105.096 35.7424 105.594 35.8495 106.125V106.122Z" fill="#F3A3A6"/>
<path d="M26.6655 72.8344L29.5118 72.8027C31.5278 73.0855 32.0854 74.1556 32.565 76.1348C33.2954 79.155 34.2328 83.1769 34.0575 83.2378C33.7727 83.3353 28.9567 85.6705 26.4805 85.1757L26.6679 72.8344H26.6655Z" fill="#E62127"/>
<path d="M52.3675 147.76C52.3675 147.892 52.2603 147.999 52.1289 147.999H0.238609C0.107131 147.999 0 147.892 0 147.76C0 147.629 0.107131 147.521 0.238609 147.521H52.1289C52.2603 147.521 52.3675 147.629 52.3675 147.76Z" fill="#3F3D58"/>
</g>
<defs>
<clipPath id="clip0_532_6053">
<rect width="108" height="148" fill="white"/>
</clipPath>
</defs>
</svg>
