<svg width="335" height="312" viewBox="0 0 335 312" fill="none" xmlns="http://www.w3.org/2000/svg">
<g clip-path="url(#clip0_306_14560)">
<path d="M225.813 221.181H105.639C95.5382 221.181 87.3203 212.973 87.3203 202.883V82.8504C87.3203 72.761 95.5382 64.5527 105.639 64.5527H225.813C235.914 64.5527 244.132 72.761 244.132 82.8504V202.883C244.132 212.973 235.914 221.181 225.813 221.181ZM105.639 67.4804C97.1408 67.4804 90.2514 74.3618 90.2514 82.8504V202.883C90.2514 211.372 97.1408 218.254 105.639 218.254H189.818C218.196 218.254 241.201 195.275 241.201 166.931V82.8504C241.201 74.3618 234.312 67.4804 225.813 67.4804L105.639 67.4804Z" fill="#0D1529"/>
<path d="M118.596 79.9629C112.908 79.9629 108.281 84.5845 108.281 90.2655V106.391C108.281 112.072 112.908 116.694 118.596 116.694H134.741C140.428 116.694 145.055 112.072 145.055 106.391V90.2655C145.055 84.5845 140.428 79.9629 134.741 79.9629H118.596Z" fill="#0D1529"/>
<path d="M118.596 125.359C112.908 125.359 108.281 129.981 108.281 135.662V151.788C108.281 157.469 112.908 162.091 118.596 162.091H134.741C140.428 162.091 145.055 157.469 145.055 151.788V135.662C145.055 129.981 140.428 125.359 134.741 125.359H118.596Z" fill="#0D1529"/>
<path d="M118.596 170.754C112.908 170.754 108.281 175.375 108.281 181.057V197.182C108.281 202.863 112.908 207.485 118.596 207.485H134.741C140.428 207.485 145.055 202.863 145.055 197.182V181.057C145.055 175.375 140.428 170.754 134.741 170.754H118.596Z" fill="#0D1529"/>
<path d="M129.302 40.6191C122.135 40.6191 116.305 46.4425 116.305 53.6008V73.9199C116.305 81.0782 122.135 86.9015 129.302 86.9015H149.644C156.811 86.9015 162.641 81.0782 162.641 73.9199V53.6008C162.641 46.4425 156.811 40.6191 149.644 40.6191H129.302Z" fill="#E62127"/>
<path d="M196.276 97.4023C189.109 97.4023 183.279 103.226 183.279 110.384V130.703C183.279 137.861 189.109 143.685 196.276 143.685H216.619C223.786 143.685 229.616 137.861 229.616 130.703V110.384C229.616 103.226 223.786 97.4023 216.619 97.4023H196.276Z" fill="#E62127"/>
<path d="M167.157 301.922L163.025 301.887L161.195 285.594L167.295 285.645L167.157 301.922Z" fill="#A0616A"/>
<path d="M153.92 308.486C153.911 309.501 154.731 310.338 155.752 310.347L163.969 310.416L165.407 307.503L165.935 310.431L169.036 310.459L168.253 300.018L167.174 299.947L162.775 299.644L161.355 299.549L161.33 302.503L154.73 306.974C154.227 307.315 153.925 307.88 153.92 308.486Z" fill="#2F2E41"/>
<path d="M188.185 301.922L184.052 301.887L182.223 285.594L188.322 285.645L188.185 301.922Z" fill="#A0616A"/>
<path d="M174.947 308.486C174.938 309.501 175.758 310.338 176.779 310.347L184.996 310.416L186.434 307.503L186.963 310.431L190.063 310.459L189.28 300.018L188.202 299.947L183.802 299.644L182.382 299.549L182.358 302.503L175.757 306.974C175.255 307.315 174.952 307.88 174.947 308.486Z" fill="#2F2E41"/>
<path d="M150.942 170.193L167.694 170.722L183.564 174.244C183.564 174.244 181.977 176.182 187.267 181.466C187.267 181.466 194.32 193.795 189.383 205.771L187.267 253.678C187.267 253.678 193.437 287.449 188.723 298.198L182.493 298.587L171.951 254.068L166.812 206.124L164.344 253.326C164.344 253.326 173.788 285.725 167.824 298.587L161.077 298.198L149.531 253.326C149.531 253.326 144.594 201.544 145.299 191.681C146.005 181.818 150.942 170.193 150.942 170.193Z" fill="#2F2E41"/>
<path d="M207.197 94.4931C204.907 95.0854 203.531 97.4198 204.124 99.7071C204.396 100.755 205.036 101.608 205.868 102.171L205.868 102.177L205.543 110.036L211.564 112.82L212.045 100.725L212.003 100.727C212.525 99.7976 212.706 98.6751 212.417 97.5623C211.824 95.2749 209.487 93.9008 207.197 94.4931Z" fill="#A0616A"/>
<path d="M173.543 122.543C172.278 121.291 171.544 119.593 171.516 117.746C171.48 115.269 172.722 113.021 174.841 111.733C177.28 110.249 180.331 110.399 182.613 112.115L201.521 126.335L204.891 105.85L212.124 108.175L210.398 134.85C210.277 136.716 209.222 138.36 207.574 139.247C205.926 140.135 203.971 140.112 202.344 139.188L175.018 123.659C174.469 123.347 173.975 122.971 173.543 122.543Z" fill="#3F3D56"/>
<path d="M144.711 83.0342C145.92 85.0652 145.251 87.6904 143.218 88.8978C142.286 89.451 141.231 89.6063 140.243 89.4214L140.239 89.4257L134.93 95.2355L128.691 92.9776L136.875 84.0507L136.904 84.0811C137.188 83.0542 137.851 82.1302 138.841 81.5428C140.874 80.3354 143.502 81.0031 144.711 83.0342Z" fill="#A0616A"/>
<path d="M147.004 126.375L116.652 118.186C114.845 117.699 113.441 116.34 112.897 114.551C112.352 112.762 112.761 110.852 113.99 109.442L131.567 89.2852L138.344 92.7204L126.297 109.637L149.748 112.836C152.578 113.222 154.85 115.261 155.537 118.03C156.133 120.435 155.43 122.906 153.658 124.639C152.337 125.931 150.619 126.62 148.838 126.62C148.23 126.62 147.614 126.54 147.004 126.375Z" fill="#3F3D56"/>
<path d="M190.276 177.242L147.833 179.186C146.667 177.418 146.983 174.76 148.615 171.43C154.779 158.86 150.098 135.08 146.949 122.698C146.065 119.223 148.437 115.77 152.008 115.413L156.01 115.013L159.709 103.734H172.665L178.039 109.868L187.161 115.402C185.5 132.484 178.426 156.604 188.504 168.701C190.708 171.346 191.333 174.207 190.276 177.242Z" fill="#3F3D56"/>
<path d="M164.539 103.996C171.508 103.996 177.158 98.3524 177.158 91.3913C177.158 84.4302 171.508 78.7871 164.539 78.7871C157.57 78.7871 151.92 84.4302 151.92 91.3913C151.92 98.3524 157.57 103.996 164.539 103.996Z" fill="#A0616A"/>
<path d="M178.817 83.3221C180.573 76.9285 161.438 71.4459 157.719 76.5946C157.202 75.8626 155.291 75.418 154.415 75.6426C153.538 75.8671 152.801 76.4285 152.081 76.9719C151.092 77.7309 150.067 78.5168 149.46 79.6081C148.848 80.6949 148.754 82.1769 149.577 83.12C150.229 83.8699 151.374 87.8553 152.355 88.0529C153.038 88.1921 153.613 88.3044 154.108 88.3852C154.549 87.743 155.672 86.9363 155.591 86.1594C156.257 86.5995 156.014 87.3738 155.88 88.1652C155.433 90.8004 145.368 111.199 151.132 105.188C151.704 105.525 152.409 105.84 153.223 106.127C154.604 104.048 155.737 101.596 156.483 99.0313L156.488 99.0786C156.745 101.307 158.376 103.136 160.533 103.76C169.186 106.264 176.186 102.59 178.593 95.9638C177.712 94.1764 177.328 94.3705 177.407 94.3174C178.507 93.5766 180.02 94.0611 180.492 95.2994C180.632 95.6645 180.759 95.9762 180.868 96.2108C182.123 91.7288 183.615 92.3757 178.817 83.3221Z" fill="#2F2E41"/>
<path d="M172.848 78.6842L171.964 74.1706C171.89 73.7912 171.82 73.3795 171.991 73.0328C172.211 72.5874 172.777 72.4028 173.269 72.4738C173.761 72.5448 174.129 72.9938 174.619 73.0803C176.322 73.381 178.572 71.7011 179.182 75.9508C179.437 77.7227 182.267 77.9098 183.213 79.4305C184.158 80.9512 184.274 83.1461 182.984 84.3885C181.954 85.3807 180.299 85.4952 178.961 84.9884C177.622 84.4815 176.548 83.4577 175.61 82.3781C174.672 81.2985 173.822 80.1303 172.74 79.1947" fill="#2F2E41"/>
<path d="M179.492 85.5495C176.039 85.0677 173.685 83.8134 172.497 81.8217C170.941 79.2144 171.983 76.3436 172.028 76.2227L172.758 76.4937C172.748 76.5201 171.803 79.148 173.17 81.4301C174.233 83.2053 176.396 84.3322 179.6 84.7793L179.492 85.5495Z" fill="#E62127"/>
<path d="M195.696 36.7786C185.545 36.7786 177.285 28.5285 177.285 18.3893C177.285 8.25004 185.545 0 195.696 0C205.847 0 214.107 8.25004 214.107 18.3893C214.107 28.5285 205.847 36.7786 195.696 36.7786ZM195.696 7.35572C189.605 7.35572 184.649 12.305 184.649 18.3893C184.649 24.4736 189.605 29.4229 195.696 29.4229C201.787 29.4229 206.742 24.4736 206.742 18.3893C206.742 12.305 201.787 7.35572 195.696 7.35572Z" fill="#E62127"/>
<path d="M224.023 49.2751C223.12 49.2751 222.216 48.9464 221.506 48.2802L204.226 32.1052C202.741 30.717 202.665 28.3896 204.057 26.908C205.445 25.4211 207.775 25.3474 209.26 26.7392L226.54 42.9142C228.025 44.3024 228.1 46.6298 226.709 48.1114C225.984 48.8854 225.004 49.2751 224.023 49.2751Z" fill="#E62127"/>
<path d="M302.119 301.509C303.371 301.587 304.063 300.034 303.116 299.128L303.022 298.754C303.034 298.724 303.047 298.694 303.059 298.664C304.325 295.649 308.616 295.67 309.872 298.69C310.986 301.37 312.404 304.055 312.753 306.889C312.91 308.14 312.84 309.414 312.562 310.642C315.172 304.946 316.546 298.726 316.546 292.471C316.546 290.899 316.46 289.327 316.284 287.76C316.139 286.477 315.94 285.203 315.681 283.94C314.284 277.114 311.258 270.613 306.894 265.183C304.796 264.037 303.047 262.247 301.99 260.1C301.61 259.326 301.313 258.493 301.172 257.645C301.411 257.676 302.072 254.044 301.892 253.822C302.225 253.317 302.82 253.067 303.184 252.575C304.991 250.127 307.481 250.554 308.781 253.88C311.558 255.28 311.584 257.602 309.881 259.834C308.797 261.255 308.648 263.177 307.697 264.698C307.794 264.823 307.896 264.944 307.994 265.069C309.788 267.368 311.34 269.839 312.649 272.435C312.279 269.55 312.825 266.074 313.756 263.834C314.815 261.281 316.801 259.131 318.549 256.924C320.65 254.274 324.957 255.431 325.327 258.791C325.33 258.823 325.334 258.856 325.337 258.888C325.077 259.035 324.823 259.19 324.574 259.354C323.157 260.291 323.647 262.486 325.327 262.745L325.365 262.751C325.271 263.685 325.11 264.612 324.875 265.523C327.119 274.188 322.276 277.344 315.36 277.486C315.208 277.564 315.059 277.642 314.906 277.716C315.607 279.687 316.167 281.708 316.581 283.756C316.953 285.566 317.212 287.396 317.356 289.234C317.536 291.552 317.521 293.882 317.325 296.196L317.337 296.114C317.834 293.565 319.219 291.184 321.231 289.535C324.228 287.076 328.463 286.17 331.696 284.193C333.252 283.242 335.247 284.471 334.975 286.274L334.962 286.36C334.48 286.556 334.011 286.782 333.557 287.036C333.297 287.183 333.042 287.338 332.794 287.502C331.376 288.439 331.866 290.634 333.546 290.893L333.584 290.899C333.611 290.903 333.635 290.907 333.662 290.911C332.836 292.869 331.686 294.687 330.245 296.255C328.843 303.819 322.818 304.537 316.374 302.334H316.37C315.666 305.399 314.636 308.394 313.313 311.248H302.393C302.354 311.127 302.319 311.001 302.283 310.88C303.293 310.943 304.311 310.884 305.305 310.7C304.495 309.707 303.685 308.707 302.874 307.714C302.855 307.694 302.839 307.674 302.824 307.655C302.413 307.147 301.998 306.642 301.587 306.134L301.587 306.134C301.561 304.573 301.748 303.018 302.119 301.509Z" fill="#0D1529"/>
</g>
<defs>
<clipPath id="clip0_306_14560">
<rect width="335" height="312" fill="white"/>
</clipPath>
</defs>
</svg>
