<svg width="334" height="270" viewBox="0 0 334 270" fill="none" xmlns="http://www.w3.org/2000/svg">
<g clip-path="url(#clip0_306_8195)">
<path d="M190.018 0H105.46C98.8267 0.00718392 92.467 2.64422 87.7764 7.33251C83.0858 12.0208 80.4475 18.3774 80.4403 25.0077V32.6469C80.2667 32.5991 80.0844 32.5923 79.9078 32.6271C79.7312 32.6618 79.565 32.7371 79.4225 32.847C79.2799 32.9569 79.1649 33.0985 79.0865 33.2605C79.0082 33.4225 78.9685 33.6004 78.9708 33.7804V39.6549C78.9686 39.8348 79.0083 40.0128 79.0867 40.1747C79.1651 40.3367 79.2801 40.4782 79.4226 40.5881C79.5651 40.698 79.7312 40.7733 79.9078 40.8081C80.0845 40.8428 80.2668 40.8361 80.4403 40.7883V49.6825C80.2667 49.6347 80.0844 49.6279 79.9078 49.6626C79.7312 49.6973 79.565 49.7726 79.4225 49.8826C79.2799 49.9925 79.1649 50.1341 79.0865 50.2961C79.0082 50.458 78.9685 50.636 78.9708 50.816V65.5026C78.9685 65.6825 79.0082 65.8605 79.0865 66.0225C79.1649 66.1845 79.2799 66.3261 79.4225 66.436C79.565 66.5459 79.7312 66.6212 79.9078 66.6559C80.0844 66.6907 80.2667 66.6838 80.4403 66.636V72.0062C80.2667 71.9584 80.0844 71.9516 79.9078 71.9863C79.7312 72.021 79.565 72.0964 79.4225 72.2063C79.2799 72.3162 79.1649 72.4578 79.0865 72.6197C79.0082 72.7817 78.9685 72.9597 78.9708 73.1396V87.8263C78.9685 88.0062 79.0082 88.1842 79.0865 88.3462C79.1649 88.5082 79.2799 88.6497 79.4225 88.7597C79.565 88.8696 79.7312 88.9449 79.9078 88.9796C80.0844 89.0144 80.2667 89.0075 80.4403 88.9597V244.053C80.4476 250.683 83.0859 257.04 87.7765 261.728C92.4671 266.416 98.8268 269.053 105.46 269.06H190.018C196.652 269.053 203.011 266.416 207.702 261.728C212.393 257.04 215.031 250.683 215.038 244.053V25.0077C215.031 18.3774 212.393 12.0208 207.702 7.33251C203.011 2.64422 196.652 0.00718392 190.018 0ZM209.747 244.053C209.742 249.281 207.661 254.293 203.962 257.99C200.264 261.687 195.249 263.767 190.018 263.772H105.46C100.229 263.767 95.2146 261.687 91.5159 257.99C87.8172 254.293 85.7368 249.281 85.731 244.053V25.0077C85.7368 19.7795 87.8172 14.7671 91.5159 11.0702C95.2146 7.37328 100.229 5.29385 105.46 5.28812H190.018C195.249 5.29385 200.264 7.37328 203.962 11.0702C207.661 14.7671 209.742 19.7795 209.747 25.0077V244.053Z" fill="#3F3D56"/>
<path d="M190.019 266.709H105.461C99.451 266.703 93.6891 264.314 89.4394 260.066C85.1898 255.819 82.7995 250.059 82.793 244.052V25.0064C82.7995 18.9995 85.1898 13.2404 89.4394 8.99281C93.6891 4.74525 99.451 2.35611 105.461 2.34961H190.019C196.029 2.35611 201.791 4.74525 206.04 8.99281C210.29 13.2404 212.68 18.9995 212.687 25.0064V244.052C212.68 250.059 210.29 255.819 206.04 260.066C201.791 264.314 196.029 266.703 190.019 266.709Z" fill="#E6E6E6"/>
<path d="M192.109 263.185H103.372C99.3182 263.181 95.4316 261.569 92.5651 258.704C89.6986 255.839 88.0863 251.954 88.082 247.903V21.1536C88.0862 17.1017 89.6985 13.217 92.565 10.3519C95.4315 7.48674 99.3181 5.87528 103.372 5.87109H114.944C115.614 5.87186 116.257 6.1382 116.73 6.61169C117.204 7.08517 117.471 7.72713 117.471 8.39674C117.474 10.3749 118.261 12.2714 119.66 13.6702C121.06 15.069 122.957 15.8558 124.936 15.858H169.369C171.348 15.8558 173.246 15.069 174.645 13.6702C176.045 12.2714 176.832 10.3749 176.834 8.39674C176.835 7.72713 177.101 7.08517 177.575 6.61169C178.049 6.1382 178.691 5.87186 179.361 5.87109H192.109C196.163 5.87528 200.049 7.48674 202.916 10.3519C205.782 13.217 207.395 17.1017 207.399 21.1536V247.903C207.395 251.954 205.782 255.839 202.916 258.704C200.049 261.569 196.163 263.181 192.109 263.185Z" fill="white"/>
<path d="M151.56 11.0159H140.98C140.668 11.0159 140.369 10.8921 140.149 10.6718C139.929 10.4514 139.805 10.1526 139.805 9.84096C139.805 9.52934 139.929 9.23049 140.149 9.01015C140.369 8.7898 140.668 8.66602 140.98 8.66602H151.56C151.871 8.66602 152.17 8.7898 152.391 9.01015C152.611 9.23049 152.735 9.52934 152.735 9.84096C152.735 10.1526 152.611 10.4514 152.391 10.6718C152.17 10.8921 151.871 11.0159 151.56 11.0159H151.56Z" fill="white"/>
<path d="M158.906 10.7217C159.231 10.7217 159.494 10.4587 159.494 10.1343C159.494 9.80986 159.231 9.54688 158.906 9.54688C158.581 9.54688 158.318 9.80986 158.318 10.1343C158.318 10.4587 158.581 10.7217 158.906 10.7217Z" fill="white"/>
<path d="M210.255 51.7676H85.1074V53.1065H210.255V51.7676Z" fill="#E6E6E6"/>
<path d="M210.255 78.5449H85.1074V79.8838H210.255V78.5449Z" fill="#E6E6E6"/>
<path d="M210.255 133.885H85.1074V135.224H210.255V133.885Z" fill="#E6E6E6"/>
<path d="M210.255 189.223H85.1074V190.562H210.255V189.223Z" fill="#E6E6E6"/>
<path d="M210.255 232.512H85.1074V233.851H210.255V232.512Z" fill="#E6E6E6"/>
<path d="M175.992 52.4375H174.652V134.553H175.992V52.4375Z" fill="#E6E6E6"/>
<path d="M113.342 134.529H112.002V233.181H113.342V134.529Z" fill="#E6E6E6"/>
<path d="M207.396 161.59H112.672V162.929H207.396V161.59Z" fill="#E6E6E6"/>
<path d="M176.136 233.182H174.797V263.184H176.136V233.182Z" fill="#E6E6E6"/>
<path d="M175.1 106.764H87.8594V108.103H175.1V106.764Z" fill="#E6E6E6"/>
<path d="M106.079 5.02803L104.844 5.54492L124.586 52.6957L125.821 52.1788L106.079 5.02803Z" fill="#E6E6E6"/>
<path d="M166.881 15.8613H165.541V52.4378H166.881V15.8613Z" fill="#E6E6E6"/>
<path d="M201.419 72.7447C201.419 84.7409 182.864 112.694 177.44 120.607C177.277 120.846 177.057 121.041 176.801 121.176C176.544 121.311 176.259 121.382 175.969 121.382C175.68 121.382 175.394 121.311 175.138 121.176C174.882 121.041 174.662 120.846 174.499 120.607C169.076 112.694 150.52 84.7409 150.52 72.7447C150.52 65.9981 153.201 59.5278 157.974 54.7573C162.747 49.9867 169.22 47.3066 175.97 47.3066C182.72 47.3066 189.193 49.9867 193.966 54.7573C198.739 59.5278 201.421 65.9981 201.421 72.7447H201.419Z" fill="#E62127"/>
<path d="M175.97 83.9002C183.121 83.9002 188.919 78.1057 188.919 70.9579C188.919 63.8101 183.121 58.0156 175.97 58.0156C168.819 58.0156 163.021 63.8101 163.021 70.9579C163.021 78.1057 168.819 83.9002 175.97 83.9002Z" fill="white"/>
<path d="M175.121 134.937L126.084 232.865L127.282 233.464L176.319 135.536L175.121 134.937Z" fill="#E6E6E6"/>
<path d="M175.97 140.132C179.176 140.132 181.775 137.535 181.775 134.331C181.775 131.127 179.176 128.529 175.97 128.529C172.765 128.529 170.166 131.127 170.166 134.331C170.166 137.535 172.765 140.132 175.97 140.132Z" fill="#E62127"/>
<path d="M257.687 70.8971C255.263 74.1265 244.619 77.9048 241.56 78.94C241.468 78.9713 241.369 78.9797 241.273 78.9643C241.177 78.9489 241.086 78.9103 241.007 78.8518C240.929 78.7933 240.867 78.7166 240.825 78.6284C240.783 78.5402 240.764 78.4432 240.768 78.3458C240.907 75.121 241.561 63.8501 243.985 60.621C244.651 59.6969 245.494 58.9146 246.466 58.3201C247.437 57.7257 248.518 57.3308 249.644 57.1588C250.77 56.9868 251.919 57.041 253.024 57.3183C254.129 57.5956 255.167 58.0904 256.079 58.7737C256.99 59.457 257.756 60.3152 258.331 61.2979C258.907 62.2807 259.28 63.3682 259.43 64.497C259.58 65.6258 259.503 66.7731 259.203 67.8717C258.904 68.9704 258.389 69.9984 257.687 70.8955L257.687 70.8971Z" fill="#F2F2F2"/>
<path d="M251.198 69.6332C253.604 69.6332 255.555 67.6831 255.555 65.2775C255.555 62.872 253.604 60.9219 251.198 60.9219C248.791 60.9219 246.84 62.872 246.84 65.2775C246.84 67.6831 248.791 69.6332 251.198 69.6332Z" fill="white"/>
<path d="M238.391 84.2897C239.47 84.2897 240.344 83.4156 240.344 82.3372C240.344 81.2589 239.47 80.3848 238.391 80.3848C237.312 80.3848 236.438 81.2589 236.438 82.3372C236.438 83.4156 237.312 84.2897 238.391 84.2897Z" fill="#F2F2F2"/>
<path d="M45.2289 159.474C48.7961 164.922 48.6823 183.127 48.5727 188.332C48.5696 188.489 48.5281 188.643 48.4519 188.78C48.3757 188.918 48.2671 189.035 48.1354 189.121C48.0037 189.207 47.853 189.26 47.6964 189.275C47.5397 189.29 47.3818 189.266 47.2363 189.206C42.4199 187.224 25.6827 180.043 22.1153 174.596C21.1096 173.079 20.4138 171.379 20.068 169.592C19.7221 167.806 19.733 165.969 20.1 164.186C20.4669 162.404 21.1828 160.712 22.2064 159.207C23.2299 157.703 24.541 156.415 26.0642 155.418C27.5873 154.422 29.2926 153.736 31.0818 153.401C32.8711 153.065 34.709 153.087 36.49 153.464C38.2709 153.841 39.9598 154.566 41.4593 155.597C42.9589 156.629 44.2397 157.947 45.228 159.475L45.2289 159.474Z" fill="#F2F2F2"/>
<path d="M33.1405 173.249C37.0215 173.249 40.1677 170.104 40.1677 166.225C40.1677 162.346 37.0215 159.201 33.1405 159.201C29.2595 159.201 26.1133 162.346 26.1133 166.225C26.1133 170.104 29.2595 173.249 33.1405 173.249Z" fill="white"/>
<path d="M51.9861 198.149C53.7258 198.149 55.1362 196.739 55.1362 195C55.1362 193.261 53.7258 191.852 51.9861 191.852C50.2463 191.852 48.8359 193.261 48.8359 195C48.8359 196.739 50.2463 198.149 51.9861 198.149Z" fill="#F2F2F2"/>
<path d="M227.007 99.241L219.822 99.5195L220.181 108.752L227.365 108.474L227.007 99.241Z" fill="#E62127"/>
<path d="M194.597 131.575C194.597 131.575 184.647 126.824 184.807 130.928C184.966 135.031 194.836 137.731 194.836 137.731L194.597 131.575Z" fill="#FFB9B9"/>
<path d="M200.056 166.295C200.056 166.295 195.362 177.778 193.628 186.065C191.894 194.351 189.252 205.755 192.65 213.843C196.047 221.93 205.707 245.7 205.806 248.264C205.906 250.829 204.979 253.434 207.032 253.354C209.084 253.274 220.255 249.759 220.709 248.2C221.162 246.642 216.898 242.697 216.898 242.697L206.365 209.715L217.353 188.227L225.278 220.283L226.829 260.291C226.829 260.291 234.447 257.941 235.553 259.953C235.553 259.953 238.966 255.197 239.4 253.126C239.833 251.054 237.788 211.578 237.788 211.578C237.788 211.578 244.78 166.615 239.135 166.834C233.49 167.053 211.381 153.526 200.056 166.295Z" fill="#090814"/>
<path d="M206.951 251.303C206.951 251.303 201.744 262.805 201.251 263.339C200.757 263.873 197.364 269.14 199.93 269.041C202.496 268.941 208.554 266.138 213.014 261.856C217.474 257.573 223.353 250.153 222.82 249.66C222.287 249.167 218.635 247.768 218.635 247.768L206.951 251.303Z" fill="#090814"/>
<path d="M227.757 257.688C227.757 257.688 227.443 262.837 226.497 264.928C225.55 267.02 225.669 270.098 228.235 269.998C230.801 269.898 237.433 268.614 237.433 268.614C237.433 268.614 237.826 265.517 237.293 265.024C236.76 264.531 234.489 258.968 235.455 257.39C236.422 255.811 227.757 257.688 227.757 257.688Z" fill="#090814"/>
<path d="M231.552 90.5879C231.552 90.5879 237.022 99.1089 239.155 101.081C241.287 103.053 235.288 107.395 235.288 107.395L224.551 108.839C224.551 108.839 224.686 99.0734 224.133 98.0676C223.58 97.0618 231.552 90.5879 231.552 90.5879Z" fill="#FFB9B9"/>
<path d="M222.221 101.738C222.221 101.738 224.433 105.762 226.486 105.683C228.538 105.603 239.157 101.082 239.61 99.523C240.063 97.9641 243.127 110.688 243.127 110.688L217.146 156.387L210.809 152.009L213.88 125.178L216.401 110.696L222.221 101.738Z" fill="#E62127"/>
<path d="M240.567 142.637C239.531 144.804 238.884 147.063 238.973 149.377C238.977 149.479 238.981 149.582 238.99 149.684C239.236 154.431 240.986 159.922 241.614 163.915C242.069 166.779 241.939 168.87 240.262 169.361C236.197 170.546 240.855 171.393 225.126 176.625C209.396 181.858 206.651 177.341 206.611 176.316C206.571 175.29 208.839 167.495 208.306 167.003C207.773 166.512 200.847 173.457 198.754 172.511C196.661 171.564 198.515 166.355 198.515 166.355C198.515 166.355 203.229 155.385 203.13 152.82C203.03 150.255 210.271 138.16 210.271 138.16L215.196 106.12C215.196 106.12 217.09 101.937 219.635 101.324C222.181 100.712 224.294 102.171 224.294 102.171L220.034 111.583L215.538 128.197L216.29 134.332C216.29 134.332 221.517 123.342 224.95 119.099C228.383 114.857 235.703 104.812 235.703 104.812C235.703 104.812 237.412 99.0494 236.123 97.327C234.833 95.5997 241.504 95.3409 244.349 102.423C245.856 106.176 248.304 111.773 249.837 116.984C251.204 121.601 251.849 125.916 250.495 128.383C248.425 132.151 243.22 137.104 240.567 142.637Z" fill="#D6D6E3"/>
<path opacity="0.1" d="M250.493 128.381C248.424 132.15 243.219 137.105 240.566 142.636C239.873 140.141 239.028 137.558 239.028 137.558C239.028 137.558 235.785 120.218 245.376 115.737C246.966 115.583 248.555 116.027 249.834 116.982C251.201 121.599 251.846 125.914 250.493 128.381Z" fill="black"/>
<path d="M212.419 127.289L204.287 129.659L192.997 130.096L191.836 139.902L210.391 141.237C210.391 141.237 215.023 128.215 212.419 127.289Z" fill="#D6D6E3"/>
<path d="M225.678 160.258C225.678 160.258 214.8 162.062 217.283 165.334C219.765 168.606 229.402 165.166 229.402 165.166L225.678 160.258Z" fill="#FFB9B9"/>
<path opacity="0.1" d="M238.991 149.682C239.237 154.429 240.986 159.919 241.614 163.912C238.149 167.19 234.854 170.083 233.612 170.13C231.046 170.229 226.92 169.875 225.401 170.448C223.882 171.021 222.99 161.295 222.99 161.295C222.99 161.295 223.897 158.177 227.943 156.481C230.673 155.333 235.908 152.217 238.991 149.682Z" fill="black"/>
<path d="M245.259 112.66C245.259 112.66 253.943 111.295 253.474 125.698C253.005 140.1 254.389 149.292 250.897 151.998C247.404 154.703 236.059 166.957 233.493 167.056C230.926 167.155 226.801 166.802 225.282 167.374C223.763 167.947 222.871 158.221 222.871 158.221C222.871 158.221 223.778 155.103 227.824 153.407C231.869 151.71 241.4 145.688 241.321 143.637C241.243 141.585 238.911 134.483 238.911 134.483C238.911 134.483 235.667 117.141 245.259 112.66Z" fill="#D6D6E3"/>
<path d="M223.894 103.205C230.134 103.205 235.192 98.1489 235.192 91.912C235.192 85.6751 230.134 80.6191 223.894 80.6191C217.654 80.6191 212.596 85.6751 212.596 91.912C212.596 98.1489 217.654 103.205 223.894 103.205Z" fill="#FFB9B9"/>
<path d="M216.288 75.7255C216.015 75.9602 215.689 76.1239 215.338 76.2021C215.161 76.2332 214.98 76.1935 214.833 76.0917C214.686 75.9899 214.585 75.8341 214.552 75.6583C214.293 76.194 214.003 76.7652 213.474 77.0402C212.945 77.3151 212.13 77.0844 212.054 76.4945C211.977 76.9424 211.779 77.3608 211.48 77.7041C211.153 78.0162 210.559 78.0951 210.273 77.7445C210.505 79.0069 210.362 80.3054 210.435 81.5868C210.508 82.8682 210.849 84.2265 211.818 85.0691C213.231 86.2969 215.355 85.9948 217.213 85.7618C217.494 85.7029 217.785 85.7188 218.058 85.808C218.754 86.1043 218.722 87.0723 218.732 87.828C218.788 89.1543 219.313 90.4177 220.214 91.3937C221.114 92.3697 222.331 92.9952 223.649 93.1591C224.387 93.2729 225.139 93.0892 225.741 92.6486C226.269 92.2018 226.538 91.4732 227.143 91.1375C228.126 90.5915 229.319 91.3879 230.038 92.2528C230.757 93.1178 231.465 94.1814 232.579 94.3397C234.052 94.5491 235.174 93.0473 235.725 91.6671C236.484 89.7306 236.848 87.6618 236.795 85.5826C236.742 83.5033 236.272 81.4558 235.415 79.5606C232.339 72.8593 221.832 71.7992 216.288 75.7255Z" fill="#090814"/>
</g>
<defs>
<clipPath id="clip0_306_8195">
<rect width="334" height="270" fill="white"/>
</clipPath>
</defs>
</svg>
